<?xml version="1.0" encoding="UTF-8" standalone="no"?>
<svg
   xmlns:dc="http://purl.org/dc/elements/1.1/"
   xmlns:cc="http://creativecommons.org/ns#"
   xmlns:rdf="http://www.w3.org/1999/02/22-rdf-syntax-ns#"
   xmlns:svg="http://www.w3.org/2000/svg"
   xmlns="http://www.w3.org/2000/svg"
   xmlns:sodipodi="http://sodipodi.sourceforge.net/DTD/sodipodi-0.dtd"
   xmlns:inkscape="http://www.inkscape.org/namespaces/inkscape"
   width="210mm"
   height="297mm"
   viewBox="0 0 210 297"
   version="1.1"
   id="svg8"
   sodipodi:docname="drawing.svg"
   inkscape:version="1.0 (4035a4fb49, 2020-05-01)">
  <defs
     id="defs2">
    <inkscape:path-effect
       crossing_points_vector="19.405495 | 206.68109 | 1 | 6 | 0 | 0 | 1.7328705 | 0.5403195 | 1"
       add_other_stroke_width="inkscape_1.0_and_up"
       inverse_width="false"
       both="false"
       add_stroke_width="inkscape_1.0_and_up"
       prop_to_stroke_width="true"
       interruption_width="3"
       switcher_size="15"
       lpeversion="1"
       is_visible="true"
       id="path-effect1502"
       effect="knot" />
    <inkscape:path-effect
       crossing_points_vector="-96.899812 | 231.00794 | 0 | 0 | 0 | 9 | 0.41983622 | 11.944391 | -1 | -48.512519 | 225.01645 | 0 | 0 | 1 | 10 | 1.9241433 | 13.637426 | 1 | -5.0341251 | 202.97196 | 0 | 0 | 2 | 11 | 3.2687436 | 14.321322 | -1 | -4.6805705 | 104.61485 | 0 | 1 | 3 | 1 | 3.6742162 | 1.4351756 | 1 | 49.74144 | 200.8089 | 0 | 0 | 5 | 12 | 5.4632078 | 14.889305 | 1 | 95.273358 | 225.69606 | 0 | 0 | 6 | 13 | 5.9915068 | 15.361491 | 1 | 40.38505 | 101.55444 | 0 | 1 | 4 | 2 | 5.0427156 | 2.3775561 | 1 | 103.67389 | 78.934193 | 0 | 1 | 7 | 3 | 7.6387664 | 3.1286776 | -1 | -90.876573 | 77.162487 | 0 | 1 | 8 | 0 | 9.9823646 | 0.49807865 | 1"
       add_other_stroke_width="inkscape_1.0_and_up"
       inverse_width="true"
       both="false"
       add_stroke_width="inkscape_1.0_and_up"
       prop_to_stroke_width="true"
       interruption_width="3.2"
       switcher_size="15"
       lpeversion="1"
       is_visible="true"
       id="path-effect1460"
       effect="knot" />
  </defs>
  <sodipodi:namedview
     id="base"
     pagecolor="#ffffff"
     bordercolor="#666666"
     borderopacity="1.0"
     inkscape:pageopacity="0.0"
     inkscape:pageshadow="2"
     inkscape:zoom="0.49497475"
     inkscape:cx="59.391006"
     inkscape:cy="754.25149"
     inkscape:document-units="mm"
     inkscape:current-layer="layer2"
     inkscape:document-rotation="0"
     showgrid="false"
     borderlayer="false"
     inkscape:showpageshadow="false"
     showborder="false"
     inkscape:window-width="1920"
     inkscape:window-height="986"
     inkscape:window-x="-11"
     inkscape:window-y="-11"
     inkscape:window-maximized="1" />
  <metadata
     id="metadata5">
    <rdf:RDF>
      <cc:Work
         rdf:about="">
        <dc:format>image/svg+xml</dc:format>
        <dc:type
           rdf:resource="http://purl.org/dc/dcmitype/StillImage" />
        <dc:title />
      </cc:Work>
    </rdf:RDF>
  </metadata>
  <g
     sodipodi:insensitive="true"
     inkscape:label="Layer 1"
     inkscape:groupmode="layer"
     id="layer1">
    <circle
       style="fill:none;fill-opacity:1;stroke:#000000;stroke-width:5;stroke-miterlimit:4;stroke-dasharray:none"
       id="path835"
       cx="14.363094"
       cy="153.45833"
       r="167.06548" />
  </g>
  <g
     inkscape:groupmode="layer"
     id="layer2"
     inkscape:label="Layer 2">
    <path
       sodipodi:nodetypes="csccsssccccccaacccccccccccccc"
       inkscape:original-d="m -119.87006,246.7914 c 18.70887,-10.15624 36.941931,-26.37602 56.1266,-30.46873 19.184669,-4.09271 30.746807,25.01062 51.78544,3.76211 17.9197607,-15.64886 -8.049451,-157.18947 28.24998,-155.922312 16.806787,0.307066 20.423149,5.229189 24.381626,26.733863 l 3.484319,18.928789 c 17.439963,94.74373 -25.104343,133.77062 15.588781,135.86408 9.121969,0.46928 43.006354,-20.0498 61.371804,-87.71853 2.89822,-23.11593 1.23604,-51.00677 -12.86551,-72.329548 M 98.901338,72.315107 C 91.565405,62.370259 84.515694,53.741499 79.513009,46.873797 62.674914,23.758405 25.531542,12.890059 -7.6168611,17.474146 -37.991365,21.674631 -81.369936,32.98822 -89.65097,68.987069 c 0,0 -1.338392,11.112884 -1.639792,16.697298 -2.735005,50.674783 -32.650698,112.164023 -1.514161,152.238073 4.787359,6.16154 12.807079,5.71168 22.738705,5.55888 21.170782,-9.57625 28.746656,-33.83435 55.341012,-34.77495 L 1.2700104,208.2138 c 19.1865316,0.29553 38.7242236,-0.34788 57.4483466,-1.527 14.33113,-2.09466 22.651342,8.75818 34.579053,16.92 l 8.36705,7.07058 c 14.60442,11.72416 26.65566,23.56931 40.38961,32.68473 M -126.15122,60.937456 c 0,0 59.047984,29.901696 106.964908,40.911004 2.229821,0.51232 4.435537,0.98373 6.610077,1.40931 m 15.8428612,2.27469 c 3.1438706,0.25716 6.1626993,0.36592 9.0277718,0.3063 C 33.562644,105.39621 66.675924,94.860713 91.851768,84.138387 123.27321,70.756074 149.39579,55.905184 149.39579,55.905184"
       inkscape:path-effect="#path-effect1502"
       d="m -119.87006,246.7914 c 18.70887,-10.15624 36.941931,-26.37602 56.1266,-30.46873 4.819064,-1.02806 9.15716,0.0385 13.285306,1.87542 m 14.034928,7.47831 c 7.266253,3.31887 14.882773,4.08641 24.465206,-5.59162 17.9197607,-15.64886 -8.049451,-157.18947 28.24998,-155.922312 16.806787,0.307066 20.423149,5.229189 24.381626,26.733863 l 0.503049,2.732848 m 2.721337,14.783841 0.259933,1.4121 c 7.191794,39.06989 4.183105,68.66498 1.017405,90.10247 m -2.329398,15.12258 c -2.98694,20.11392 -2.638004,29.63386 16.900774,30.63903 9.121969,0.46928 43.006354,-20.0498 61.371804,-87.71853 2.89822,-23.11593 1.23604,-51.00677 -12.86551,-72.329548 M 98.901338,72.315107 C 91.565405,62.370259 84.515694,53.741499 79.513009,46.873797 62.674914,23.758405 25.531542,12.890059 -7.6168611,17.474146 -37.991365,21.674631 -81.369936,32.98822 -89.65097,68.987069 c 0,0 -0.02224,0.184686 -0.06164,0.518405 m -1.547385,15.647042 c -0.0112,0.182214 -0.02147,0.359661 -0.03077,0.531851 -2.469061,45.747313 -27.089858,100.308203 -8.946408,139.970203 m 7.854532,12.78469 c 4.829294,5.61902 12.671255,5.19045 22.31642,5.04206 21.170782,-9.57625 28.746656,-33.83435 55.341012,-34.77495 l 0.02451,-7.5e-4 m 15.37167845,-0.47337 0.59902595,-0.0185 c 19.1865316,0.29553 38.7242236,-0.34788 57.4483466,-1.527 10.950395,-1.60053 18.391337,4.3583 26.613757,10.89988 m 11.800189,9.2608 4.532157,3.8299 c 14.60442,11.72416 26.65566,23.56931 40.38961,32.68473 M -126.15122,60.937456 c 0,0 59.047984,29.901696 106.964908,40.911004 2.229821,0.51232 4.435537,0.98373 6.610077,1.40931 m 15.8428612,2.27469 c 3.1438706,0.25716 6.1626993,0.36592 9.0277718,0.3063 C 33.562644,105.39621 66.675924,94.860713 91.851768,84.138387 123.27321,70.756074 149.39579,55.905184 149.39579,55.905184"
       style="fill:none;stroke:#f70000;stroke-width:5;stroke-linecap:butt;stroke-linejoin:miter;stroke-miterlimit:4;stroke-dasharray:none;stroke-opacity:1"
       id="path1470" />
    <path
       id="path1472"
       d="M 24.75744,193.90178 Z"
       style="fill:none;stroke:#000000;stroke-width:0.264583px;stroke-linecap:butt;stroke-linejoin:miter;stroke-opacity:1" />
  </g>
</svg>
