<?xml version="1.0" encoding="UTF-8" standalone="no"?>
<svg
   xmlns:dc="http://purl.org/dc/elements/1.1/"
   xmlns:cc="http://creativecommons.org/ns#"
   xmlns:rdf="http://www.w3.org/1999/02/22-rdf-syntax-ns#"
   xmlns:svg="http://www.w3.org/2000/svg"
   xmlns="http://www.w3.org/2000/svg"
   xmlns:sodipodi="http://sodipodi.sourceforge.net/DTD/sodipodi-0.dtd"
   xmlns:inkscape="http://www.inkscape.org/namespaces/inkscape"
   inkscape:version="1.0 (4035a4fb49, 2020-05-01)"
   sodipodi:docname="6_1-vertical.svg"
   id="svg8"
   version="1.1"
   viewBox="0 0 210 297"
   height="297mm"
   width="210mm"
   inkscape:export-filename="C:\Users\Leon\Desktop\blog\assets\img\Capped-Trivial-Tangles\6_1-vertical\6_1-vertical.png"
   inkscape:export-xdpi="96"
   inkscape:export-ydpi="96">
  <defs
     id="defs2">
    <inkscape:path-effect
       effect="knot"
       id="path-effect2080"
       is_visible="true"
       lpeversion="1"
       switcher_size="15"
       interruption_width="3"
       prop_to_stroke_width="true"
       add_stroke_width="inkscape_1.0_and_up"
       both="false"
       inverse_width="false"
       add_other_stroke_width="inkscape_1.0_and_up"
       crossing_points_vector="37.911169 | 78.695472 | 0 | 1 | 2 | 0 | 0.62117206 | 0.32469296 | 1 | 50.764004 | 31.59408 | 0 | 2 | 0 | 6 | 0.30941522 | 4.8112752 | -1 | 45.628735 | 51.135599 | 0 | 3 | 1 | 1 | 0.43794763 | 2.270451 | 1 | -12.319253 | 133.1395 | 0 | 2 | 3 | 3 | 1.6174028 | 1.4870712 | 1 | -11.31542 | 77.17646 | 0 | 2 | 4 | 2 | 3.6463166 | 0.85801862 | 1 | 7.6941715 | 238.03275 | 1 | 2 | 2 | 9 | 2.7149943 | 8.4354716 | -1 | -2.1203713 | 184.65401 | 1 | 2 | 1 | 12 | 2.2264161 | 11.38134 | -1 | 6.4581736 | 284.45028 | 1 | 2 | 3 | 8 | 3.1657353 | 7.5316157 | -1 | -37.661928 | 28.851179 | 2 | 2 | 0 | 5 | 0.37887966 | 4.4064431 | 1 | -21.816253 | 52.834236 | 2 | 3 | 1 | 0 | 0.64778259 | 0.62173337 | 1 | -78.619113 | 135.96986 | 2 | 2 | 4 | 13 | 2.84913 | 12.958787 | 1 | 59.044458 | 282.25996 | 2 | 3 | 7 | 4 | 7.1245784 | 5.7940063 | -1 | 31.470515 | 233.32558 | 2 | 3 | 10 | 3 | 8.723727 | 5.3915061 | -1 | 29.60069 | 191.65231 | 2 | 3 | 11 | 2 | 10.666027 | 5.1018116 | -1" />
  </defs>
  <sodipodi:namedview
     inkscape:window-maximized="1"
     inkscape:window-y="-11"
     inkscape:window-x="-11"
     inkscape:window-height="986"
     inkscape:window-width="1920"
     showborder="false"
     inkscape:showpageshadow="false"
     borderlayer="false"
     showgrid="false"
     inkscape:document-rotation="0"
     inkscape:current-layer="layer2"
     inkscape:document-units="mm"
     inkscape:cy="652.965"
     inkscape:cx="-395.10991"
     inkscape:zoom="0.49497475"
     inkscape:pageshadow="2"
     inkscape:pageopacity="0.0"
     borderopacity="1.0"
     bordercolor="#666666"
     pagecolor="#ffffff"
     id="base" />
  <metadata
     id="metadata5">
    <rdf:RDF>
      <cc:Work
         rdf:about="">
        <dc:format>image/svg+xml</dc:format>
        <dc:type
           rdf:resource="http://purl.org/dc/dcmitype/StillImage" />
        <dc:title />
      </cc:Work>
    </rdf:RDF>
  </metadata>
  <g
     id="layer1"
     inkscape:groupmode="layer"
     inkscape:label="Layer 1">
    <circle
       r="167.06548"
       cy="153.45833"
       cx="14.363094"
       id="path835"
       style="fill:none;fill-opacity:1;stroke:#000000;stroke-width:5;stroke-miterlimit:4;stroke-dasharray:none"
       inkscape:export-xdpi="96"
       inkscape:export-ydpi="96" />
  </g>
  <g
     inkscape:label="Layer 2"
     id="layer2"
     inkscape:groupmode="layer">
    <path
       id="path2069"
       style="fill:none;stroke:#ff0000;stroke-width:5;stroke-linecap:butt;stroke-linejoin:miter;stroke-miterlimit:4;stroke-dasharray:none;stroke-opacity:1"
       d="m 59.204979,-11.752735 c -7.955214,22.218975 1.552828,93.671291 -14.238034,120.349565 -1.2588,0.9454 -3.659295,2.06269 -6.877217,3.23323 m -18.331883,5.10256 c -3.75587,0.81993 -7.712408,1.56972 -11.7248698,2.1964 m -15.9761846,1.72319 c -10.0415366,0.52776 -19.1790536,-0.22449 -24.9512926,-3.15718 -5.047396,-3.15219 -10.314259,-9.79725 -11.349939,-17.45636 m 4.215596,-15.092267 c 0.949345,-1.241763 2.070389,-2.470098 3.380081,-3.675564 6.100684,-7.166667 10.357341,-5.914516 34.8150992,-5.173597 m 15.4706388,-0.0649 c 5.924594,0.16011 6.366254,3.390857 4.189689,8.304133 C 2.4524415,104.6944 -2.7039399,124.29489 -3.4752347,144.31872 m 0.166975,15.38542 c 1.176969,22.06825 5.7811155,44.93152 6.3219584,69.84931 -0.4741855,4.69985 -1.3936912,9.0821 -2.68157677,13.16595 m -6.42617643,13.98566 c -18.0165215,29.01221 -56.2353515,37.64681 -65.3955655,38.203 M -57.281078,2.7881964 c 7.659595,12.4884426 20.693667,25.2937846 32.05253,44.1036536 m 7.724512,14.514292 c 1.033205,2.235201 2.031772,4.546433 2.988296,6.939673 m 5.1216953,15.197651 c 1.2030352,4.3305 2.264561,8.895218 3.1553623,13.717723 C -16.727693,118.07816 -80.009018,70.724941 -73.712751,56.440197 c 5.342435,-14.65013 14.616143,-22.98526 26.759159,-27.346341 M -30.69849,25.57822 c 19.337502,-2.031619 43.121279,1.44562 68.731403,4.656469 3.587682,-0.191321 6.84785,-0.08007 9.80551,0.306342 m 14.898311,5.849012 c 24.465448,19.419032 2.471233,79.264587 -2.574854,110.002627 -0.67331,16.58248 -7.089601,44.14115 -1.23329,58.68131 6.349615,15.62103 13.429935,28.22097 1.550731,37.04202 -26.563287,15.76659 -106.360215,15.837 -87.641211,-30.03192 1.576375,-2.74669 10.308446,-5.69104 20.8626511,-8.2975 m 14.7374026,-3.23862 c 4.2733993,-0.84497 8.4645303,-1.60474 12.2705683,-2.2489 m 14.913621,-2.16548 c 0.08606,-0.008 0.169057,-0.0155 0.248938,-0.0224 8.352572,-3.80358 10.116832,-28.5613 3.43194,-38.54966 -5.491686,-8.83113 -20.498149,-1.16056 -29.227685,-3.4806 -30.834709,-2.56401 -79.510891,-24.09513 -78.658732,-47.41219 0.608674,-9.594022 1.318518,-16.97366 2.295213,-22.844841 m 5.185914,-16.23834 c 1.438687,-2.441373 3.149926,-4.517939 5.20631,-6.538998 m 7.512903,-5.225272 c 12.534305,-0.263197 43.2738944,-3.570911 70.952717,-3.355013 43.001599,-3.150023 0.44412,69.318004 -2.647247,85.571174 0.08125,2.82245 0.209303,5.64134 0.382494,8.45525 m 1.342178,14.95038 c 3.268442,27.78059 10.715413,54.81129 20.70657,79.66436 m 5.968337,13.94053 c 8.834308,19.42921 19.135536,37.24956 30.033606,52.70096"
       sodipodi:nodetypes="cccccccccccccccccccccccccc"
       inkscape:export-xdpi="96"
       inkscape:export-ydpi="96"
       inkscape:original-d="m 59.204979,-11.752735 c -7.955214,22.218975 1.552828,93.671291 -14.238034,120.349565 -7.814516,5.86896 -59.627848,18.36211 -77.861447,9.0982 -9.0216,-5.63415 -18.744335,-22.42703 -3.754262,-36.224191 6.100684,-7.166667 10.357341,-5.914516 34.8150992,-5.173597 m 15.4706388,-0.0649 c 5.924594,0.16011 6.366254,3.390857 4.189689,8.304133 C -18.171102,131.73497 1.848657,175.87749 3.0136987,229.55345 -2.1416762,280.65051 -59.934674,294.20647 -71.48962,294.90806 M -57.281078,2.7881964 C -44.252016,24.031185 -15.672223,46.1911 -6.2386824,97.261189 -16.727693,118.07816 -80.009018,70.724941 -73.712751,56.440197 -58.967905,16.006591 -14.277303,23.676337 38.032913,30.234689 98.102869,27.03133 66.357528,108.65213 60.16188,146.39267 c -0.67331,16.58248 -7.089601,44.14115 -1.23329,58.68131 6.349615,15.62103 13.429935,28.22097 1.550731,37.04202 -26.563287,15.76659 -106.360215,15.837 -87.641211,-30.03192 3.99301,-6.95747 53.898829,-15.18315 63.033181,-15.97292 8.352572,-3.80358 10.116832,-28.5613 3.43194,-38.54966 -5.491686,-8.83113 -20.498149,-1.16056 -29.227685,-3.4806 -30.834709,-2.56401 -79.510891,-24.09513 -78.658732,-47.41219 1.82635,-28.787239 4.563557,-37.637854 12.687437,-45.622179 m 7.512903,-5.225272 c 12.534305,-0.263197 43.2738944,-3.570911 70.952717,-3.355013 43.001599,-3.150023 0.44412,69.318004 -2.647247,85.571174 1.843484,64.03661 27.776947,126.24674 58.433185,169.71148"
       inkscape:path-effect="#path-effect2080" />
    <path
       style="fill:none;stroke:#ff0000;stroke-width:5;stroke-linecap:butt;stroke-linejoin:miter;stroke-miterlimit:4;stroke-dasharray:none;stroke-opacity:1"
       d="m -45.814662,55.732922 c -5.103665,-0.398116 -9.188301,3.097159 -11.544686,7.086719"
       id="path2082"
       sodipodi:nodetypes="cc"
       inkscape:export-xdpi="96"
       inkscape:export-ydpi="96" />
    <path
       style="fill:none;stroke:#ff0000;stroke-width:5;stroke-linecap:butt;stroke-linejoin:miter;stroke-miterlimit:4;stroke-dasharray:none;stroke-opacity:1"
       d="m -1.8336648,76.297242 15.4706388,-0.0649"
       id="path2084"
       sodipodi:nodetypes="cc" />
  </g>
</svg>
