<?xml version="1.0" encoding="UTF-8" standalone="no"?>
<svg
   xmlns:dc="http://purl.org/dc/elements/1.1/"
   xmlns:cc="http://creativecommons.org/ns#"
   xmlns:rdf="http://www.w3.org/1999/02/22-rdf-syntax-ns#"
   xmlns:svg="http://www.w3.org/2000/svg"
   xmlns="http://www.w3.org/2000/svg"
   xmlns:sodipodi="http://sodipodi.sourceforge.net/DTD/sodipodi-0.dtd"
   xmlns:inkscape="http://www.inkscape.org/namespaces/inkscape"
   inkscape:export-ydpi="96"
   inkscape:export-xdpi="96"
   inkscape:export-filename="C:\Users\Leon\Desktop\blog\assets\img\Capped-Trivial-Tangles\6_1-vertical\6_1-vertical.png"
   width="210mm"
   height="297mm"
   viewBox="0 0 210 297"
   version="1.1"
   id="svg8"
   sodipodi:docname="6_1-vertical.svg"
   inkscape:version="1.0 (4035a4fb49, 2020-05-01)">
  <defs
     id="defs2">
    <inkscape:path-effect
       crossing_points_vector="66.917381 | 53.535361 | 0 | 2 | 0 | 6 | 0.36727124 | 3.4441021 | -1 | -3.2397297 | 131.34052 | 0 | 1 | 2 | 0 | 1.6190731 | 1.2561976 | 1 | 24.264125 | 126.47933 | 0 | 3 | 1 | 1 | 1.3284503 | 1.6370558 | 1 | -45.056995 | 102.7593 | 0 | 2 | 3 | 3 | 2.7583539 | 1.4723812 | 1 | -12.928869 | 86.925672 | 0 | 2 | 4 | 2 | 3.8523507 | 0.85358629 | 1 | -9.7357551 | 213.63747 | 1 | 2 | 2 | 9 | 1.8298651 | 7.4438079 | -1 | -9.7781688 | 161.82565 | 1 | 2 | 1 | 12 | 1.4743824 | 10.183322 | -1 | -13.329902 | 259.76649 | 1 | 2 | 3 | 8 | 2.1466992 | 6.5467557 | -1 | -36.685871 | 34.781661 | 2 | 2 | 0 | 5 | 0.40431951 | 2.5573626 | 1 | -23.785791 | 58.75668 | 2 | 3 | 1 | 0 | 0.63136194 | 0.15067588 | 1 | -65.821512 | 86.027919 | 2 | 2 | 4 | 13 | 1.7056658 | 11.524689 | 1 | 47.670608 | 257.80176 | 2 | 3 | 7 | 4 | 6.1139625 | 2.6417081 | -1 | 27.630461 | 207.82703 | 2 | 3 | 10 | 3 | 7.8570169 | 2.326618 | -1 | 19.410511 | 164.93603 | 2 | 3 | 11 | 2 | 9.6484762 | 2.084365 | -1"
       add_other_stroke_width="inkscape_1.0_and_up"
       inverse_width="false"
       both="false"
       add_stroke_width="inkscape_1.0_and_up"
       prop_to_stroke_width="true"
       interruption_width="3"
       switcher_size="15"
       lpeversion="1"
       is_visible="true"
       id="path-effect2080"
       effect="knot" />
  </defs>
  <sodipodi:namedview
     id="base"
     pagecolor="#ffffff"
     bordercolor="#666666"
     borderopacity="1.0"
     inkscape:pageopacity="0.0"
     inkscape:pageshadow="2"
     inkscape:zoom="1.4"
     inkscape:cx="-114.46221"
     inkscape:cy="459.96909"
     inkscape:document-units="mm"
     inkscape:current-layer="layer2"
     inkscape:document-rotation="0"
     showgrid="false"
     borderlayer="false"
     inkscape:showpageshadow="false"
     showborder="false"
     inkscape:window-width="1920"
     inkscape:window-height="986"
     inkscape:window-x="-11"
     inkscape:window-y="-11"
     inkscape:window-maximized="1" />
  <metadata
     id="metadata5">
    <rdf:RDF>
      <cc:Work
         rdf:about="">
        <dc:format>image/svg+xml</dc:format>
        <dc:type
           rdf:resource="http://purl.org/dc/dcmitype/StillImage" />
        <dc:title />
      </cc:Work>
    </rdf:RDF>
  </metadata>
  <g
     inkscape:groupmode="layer"
     id="layer2"
     inkscape:label="Layer 2">
    <path
       inkscape:path-effect="#path-effect2080"
       inkscape:original-d="M 79.485569,-0.45342441 C 72.059465,40.484128 50.164252,116.65795 43.45504,119.55814 c -7.814516,5.86896 -59.627848,18.36211 -77.861447,9.0982 -9.0216,-5.63415 -18.744335,-22.42703 -3.754262,-36.224192 6.100684,-7.166667 10.357341,-5.914516 34.8150994,-5.173597 m 15.4706386,-0.0649 c 5.924594,0.16011 6.366254,3.390857 4.189689,8.304133 C -19.683007,142.69628 -9.8194897,186.57153 -8.6544481,240.24749 -13.809823,291.34455 -59.934674,294.20647 -71.48962,294.90806 M -57.281078,2.7881964 C -44.252016,24.031185 -17.184128,57.152409 -7.7505872,108.2225 -18.239598,129.03947 -81.520923,81.68625 -75.224656,67.401506 -62.713917,33.094312 -28.833558,29.44903 13.156675,34.340774 c 17.659383,3.297292 30.748599,6.381124 40.17823,10.380678 34.90376,20.351398 37.323161,102.516918 25.157219,159.196188 -6.100168,28.64485 -13.998637,51.2161 -41.343576,56.40223 -36.0246532,6.66644 -91.002277,-0.7278 -75.978585,-37.54175 3.99301,-6.95747 64.055071,-14.91588 73.189423,-15.70565 8.352572,-3.80358 10.116832,-28.5613 3.43194,-38.54966 -5.491686,-8.83113 -20.498149,-1.16056 -29.2276848,-3.4806 -30.8347092,-2.56401 -79.5108912,-24.09513 -78.6587322,-47.41219 1.82635,-28.78724 4.563557,-37.637855 12.687437,-45.62218 m 21.939183,-10.910369 c 23.278425,-5.798525 66.349484,-8.630332 74.291835,14.379494 2.141713,20.447893 -22.224629,60.752375 -20.412645,73.521765 1.843484,64.03661 29.288852,115.28543 59.94509,158.75017"
       inkscape:export-ydpi="96"
       inkscape:export-xdpi="96"
       sodipodi:nodetypes="cccccccccccccccccccccccccc"
       d="M 79.485569,-0.45342441 C 72.059465,40.484128 50.164252,116.65795 43.45504,119.55814 c -0.78251,0.58769 -2.006201,1.2418 -3.593178,1.93384 m -56.80897,10.46011 c -7.006892,-0.13878 -13.164574,-1.11374 -17.459299,-3.29575 -3.199128,-1.99791 -6.486421,-5.399 -8.728655,-9.5721 m 5.195309,-26.908826 c 5.985851,-6.879674 10.432675,-5.648807 34.5941834,-4.916863 m 15.4706386,-0.0649 c 5.924594,0.16011 6.366254,3.390857 4.189689,8.304133 C 2.4942709,113.61853 -4.5662921,131.24942 -7.9544944,149.13317 M -10.624531,174.767 c -0.683707,20.69455 1.4639688,42.16273 1.9700829,65.48049 -0.256425,2.54153 -0.6142086,4.96374 -1.0640553,7.27227 m -10.0863296,23.81238 c -15.824312,21.36518 -43.160809,23.05836 -51.684787,23.57592 M -57.281078,2.7881964 C -50.459285,13.91066 -39.788903,28.28941 -29.816124,46.795793 m 11.26306,24.04673 c 0.414507,1.044126 0.823337,2.098402 1.225999,3.162921 m 7.8312811,25.80499 c 0.6333264,2.748446 1.2169128,5.552106 1.7451967,8.412066 -10.4890108,20.81697 -73.7703358,-26.53625 -67.4740688,-40.820994 5.2498,-14.396104 14.262445,-23.393141 26.058188,-28.625893 m 26.232694,-5.879697 c 11.003449,-0.758047 23.16258642,-0.0612 36.090449,1.444858 17.659383,3.297292 30.748599,6.381124 40.17823,10.380678 0.8059,0.469897 1.594481,0.972748 2.365966,1.507479 m 19.13613,26.732114 c 13.645839,34.575055 12.540153,89.562595 3.655123,130.956595 -6.100168,28.64485 -13.998637,51.2161 -41.343576,56.40223 -36.0246532,6.66644 -91.002277,-0.7278 -75.978585,-37.54175 1.227154,-2.13821 7.749978,-4.37096 16.462716,-6.46111 m 25.2855331,-4.91274 c 4.127661,-0.67732 8.1775959,-1.29781 11.9430649,-1.8457 m 24.217038,-8.05431 c 3.997676,-8.90777 3.850179,-25.30565 -1.286989,-32.98145 -5.491686,-8.83113 -20.498149,-1.16056 -29.2276848,-3.4806 -30.8347092,-2.56401 -79.5108912,-24.09513 -78.6587322,-47.41219 0.399564,-6.29799 0.842724,-11.64174 1.376349,-16.23095 m 9.226595,-27.178943 c 0.652594,-0.75412 1.346305,-1.48678 2.084493,-2.212287 m 21.939183,-10.910369 c 23.278425,-5.798525 66.349484,-8.630332 74.291835,14.379494 2.141713,20.447893 -22.224629,60.752375 -20.412645,73.521765 0.03078,1.06917 0.0687,2.13478 0.113645,3.19685 m 2.461965,25.39276 c 3.747957,24.61094 11.196938,47.21495 20.819343,68.15341 m 11.599353,22.75982 c 7.707837,13.79455 16.198452,26.83818 24.950784,39.24733"
       style="fill:none;stroke:#ff0000;stroke-width:8.5;stroke-linecap:butt;stroke-linejoin:miter;stroke-miterlimit:4;stroke-dasharray:none;stroke-opacity:1"
       id="path2069" />
    <path
       sodipodi:nodetypes="cc"
       id="path2084"
       d="m -3.3455696,87.258551 15.4706386,-0.0649"
       style="fill:none;stroke:#ff0000;stroke-width:8.5;stroke-linecap:butt;stroke-linejoin:miter;stroke-miterlimit:4;stroke-dasharray:none;stroke-opacity:1" />
  </g>
  <g
     inkscape:label="Layer 1"
     inkscape:groupmode="layer"
     id="layer1">
    <circle
       inkscape:export-ydpi="96"
       inkscape:export-xdpi="96"
       style="fill:none;fill-opacity:1;stroke:#000000;stroke-width:5;stroke-miterlimit:4;stroke-dasharray:none"
       id="path835"
       cx="14.363094"
       cy="153.45833"
       r="167.06548" />
  </g>
</svg>
