<?xml version="1.0" encoding="UTF-8" standalone="no"?>
<svg
   xmlns:dc="http://purl.org/dc/elements/1.1/"
   xmlns:cc="http://creativecommons.org/ns#"
   xmlns:rdf="http://www.w3.org/1999/02/22-rdf-syntax-ns#"
   xmlns:svg="http://www.w3.org/2000/svg"
   xmlns="http://www.w3.org/2000/svg"
   xmlns:sodipodi="http://sodipodi.sourceforge.net/DTD/sodipodi-0.dtd"
   xmlns:inkscape="http://www.inkscape.org/namespaces/inkscape"
   inkscape:export-ydpi="96"
   inkscape:export-xdpi="96"
   inkscape:export-filename="C:\Users\Leon\Desktop\blog\assets\img\Capped-Trivial-Tangles\1-trivial\test.png"
   width="210mm"
   height="297mm"
   viewBox="0 0 210 297"
   version="1.1"
   id="svg8"
   sodipodi:docname="4_1-horizontal.svg"
   inkscape:version="1.0 (4035a4fb49, 2020-05-01)">
  <defs
     id="defs2">
    <inkscape:path-effect
       crossing_points_vector="50.065356 | 249.75868 | 0 | 0 | 0 | 9 | 0.55947172 | 6.8741829 | 1 | -37.772219 | 256.20969 | 0 | 0 | 1 | 10 | 2.3160898 | 8.725092 | 1 | -39.983973 | 194.47132 | 0 | 0 | 2 | 11 | 2.7022554 | 11.504965 | 1 | -5.1307646 | 115.33336 | 0 | 0 | 3 | 12 | 3.3358834 | 12.486371 | 1 | 28.008222 | 106.40134 | 0 | 0 | 4 | 17 | 3.5465686 | 15.659374 | 1 | -11.902693 | 79.506536 | 0 | 0 | 6 | 13 | 4.7289868 | 12.764411 | 1 | 33.128115 | 86.501646 | 0 | 0 | 5 | 16 | 4.4163262 | 15.52959 | 1 | -42.449919 | 27.652639 | 0 | 0 | 7 | 14 | 5.5233657 | 13.354181 | 1 | 50.330648 | 37.927182 | 0 | 0 | 8 | 15 | 6.1313556 | 15.227506 | 1"
       add_other_stroke_width="inkscape_1.0_and_up"
       inverse_width="false"
       both="false"
       add_stroke_width="inkscape_1.0_and_up"
       prop_to_stroke_width="true"
       interruption_width="3"
       switcher_size="15"
       lpeversion="1"
       is_visible="true"
       id="path-effect2610"
       effect="knot" />
    <inkscape:path-effect
       crossing_points_vector="-17.197387 | 264.2368 | 0 | 0 | 0 | 9 | 1.3048298 | 7.4229848 | 1 | -33.429613 | 184.45243 | 0 | 0 | 1 | 10 | 1.7245511 | 8.2685693 | 1 | -12.327942 | 147.10916 | 0 | 0 | 2 | 11 | 2.165541 | 8.4945147 | 1 | 32.346805 | 133.39006 | 0 | 0 | 3 | 16 | 2.4537944 | 12.039566 | 1 | -11.902051 | 79.508215 | 0 | 0 | 5 | 12 | 3.7289727 | 8.8515889 | 1 | 35.157726 | 86.631628 | 0 | 0 | 4 | 15 | 3.4003637 | 11.743685 | 1 | -45.044502 | 24.434718 | 0 | 0 | 6 | 13 | 5.0837321 | 9.4352406 | 1 | 48.732854 | 32.859024 | 0 | 0 | 7 | 14 | 5.4872077 | 11.339433 | 1 | 54.723455 | 251.72939 | 0 | 0 | 8 | 17 | 6.9520659 | 12.603421 | 1"
       add_other_stroke_width="inkscape_1.0_and_up"
       inverse_width="false"
       both="false"
       add_stroke_width="inkscape_1.0_and_up"
       prop_to_stroke_width="true"
       interruption_width="3"
       switcher_size="15"
       lpeversion="1"
       is_visible="true"
       id="path-effect2608"
       effect="knot" />
  </defs>
  <sodipodi:namedview
     id="base"
     pagecolor="#ffffff"
     bordercolor="#666666"
     borderopacity="1.0"
     inkscape:pageopacity="0.0"
     inkscape:pageshadow="2"
     inkscape:zoom="0.35"
     inkscape:cx="-639.07589"
     inkscape:cy="1215.3523"
     inkscape:document-units="mm"
     inkscape:current-layer="layer1"
     inkscape:document-rotation="0"
     showgrid="false"
     borderlayer="false"
     inkscape:showpageshadow="false"
     showborder="false"
     inkscape:window-width="1920"
     inkscape:window-height="986"
     inkscape:window-x="-11"
     inkscape:window-y="-11"
     inkscape:window-maximized="1" />
  <metadata
     id="metadata5">
    <rdf:RDF>
      <cc:Work
         rdf:about="">
        <dc:format>image/svg+xml</dc:format>
        <dc:type
           rdf:resource="http://purl.org/dc/dcmitype/StillImage" />
        <dc:title></dc:title>
      </cc:Work>
    </rdf:RDF>
  </metadata>
  <g
     inkscape:label="Layer 1"
     inkscape:groupmode="layer"
     id="layer1">
    <circle
       inkscape:export-ydpi="96"
       inkscape:export-xdpi="96"
       style="fill:none;fill-opacity:1;stroke:#000000;stroke-width:5;stroke-miterlimit:4;stroke-dasharray:none"
       id="path835"
       cx="14.363094"
       cy="153.45833"
       r="167.06548" />
  </g>
  <g
     style="opacity:1"
     inkscape:groupmode="layer"
     id="layer2"
     inkscape:label="Layer 2">
    <path
       inkscape:export-ydpi="96"
       inkscape:export-xdpi="96"
       sodipodi:nodetypes="ccssccccccccccccccccsccccccccccccccccccccccc"
       d="m -41.762349,180.06945 c -1.078496,-11.26702 -1.164108,-22.25525 1.34374,-32.55233 2.70726,-10.53416 9.829113,-18.36649 19.218121,-24.32801 5.228096,-3.31957 11.15915,-6.05907 17.422402,-8.36197 7.6294886,-2.80526 15.751911,-4.96268 23.697107,-6.7316 L 36.05911,104.87292 C 55.697488,101.26825 70.760722,99.136827 68.579277,93.575779 65.19401,88.667187 54.813628,87.815315 40.793033,86.967381 M 25.486287,85.95472 C 16.490138,85.224369 4.3049768,82.464421 -5.6725277,80.174432 M -24.782218,74.254098 c -10.192491,-4.096963 -17.798009,-8.237737 -27.005668,-16.380626 -16.228246,-13.696809 -11.05531,-22.4184 1.774263,-27.701126 l 15.674712,-4.345077 C -19.422297,23.055861 -2.1758043,22.655143 7.2510895,23.490615 21.085153,24.956881 33.238581,28.671705 43.78083,34.161789 l 12.845274,8.130753 C 115.3876,86.871151 109.0039,196.11952 55.846868,244.84731 m -11.873749,9.31986 c -8.715847,5.79085 -18.403426,10.10107 -29.005369,12.53972 -13.3465134,1.21924 -25.337376,-0.34844 -35.731029,-3.45896 -3.564689,-1.06681 -6.941503,-2.3151 -10.120698,-3.69467 m -13.633812,-7.24789 c -3.319859,-1.85979 -5.979361,-3.74579 -8.068299,-5.66365 -11.696922,-13.24727 -3.22625,-25.90838 3.641047,-37.6573 0.915777,-1.56272 16.952733,-26.85827 17.833995,-28.22486 11.19721,-18.48251 17.062788,-36.85826 19.09345,-54.30481 m 0.813271,-16.8379 C -11.356619,101.743 -12.24799,94.134135 -13.722923,86.875721 l -4.83621,-17.431796 c -3.54815,-10.015297 -8.136623,-19.06256 -13.225009,-26.844825 -2.47031,-3.830653 -5.058581,-7.552506 -7.74577,-11.144143 M -47.636206,21.361713 C -52.959485,15.189507 -58.560955,9.5400118 -64.318037,4.5510985 M 69.547618,-2.2678572 C 63.275696,9.577917 57.797731,20.880395 52.992196,31.774257 M 47.330835,45.178283 C 39.600993,64.340332 33.912122,82.345274 29.541597,99.993955 M 26.068388,115.2104 c -2.99316,14.28239 -5.247983,28.48159 -7.156642,43.03222 -5.570829,43.43545 48.660743,127.45134 73.314443,140.73655 m -165.553568,-1.51193 c 28.743775,-15.09015 36.963004,-35.37487 37.757121,-57.47925 0.25433,-9.43022 -6.038298,-45.65631 -1.838709,-27.67052"
       style="fill:none;stroke:#ff0000;stroke-width:5;stroke-linecap:butt;stroke-linejoin:miter;stroke-miterlimit:4;stroke-dasharray:none;stroke-opacity:1"
       id="path2602" />
  </g>
</svg>
